<svg xmlns="http://www.w3.org/2000/svg" version="1.1" xmlns:xlink="http://www.w3.org/1999/xlink" xmlns:svgjs="http://svgjs.dev/svgjs" width="1000" height="1000"><style>
    #light-icon {
      display: inline;
    }
    #dark-icon {
      display: none;
    }

    @media (prefers-color-scheme: dark) {
      #light-icon {
        display: none;
      }
      #dark-icon {
        display: inline;
      }
    }
  </style><g id="light-icon"><svg xmlns="http://www.w3.org/2000/svg" version="1.1" xmlns:xlink="http://www.w3.org/1999/xlink" xmlns:svgjs="http://svgjs.dev/svgjs" width="1000" height="1000"><g clip-path="url(#SvgjsClipPath1168)"><rect width="1000" height="1000" fill="#000000"></rect><g transform="matrix(1.5,0,0,1.5,50,50)"><svg xmlns="http://www.w3.org/2000/svg" version="1.1" xmlns:xlink="http://www.w3.org/1999/xlink" xmlns:svgjs="http://svgjs.dev/svgjs" width="600" height="600"><svg xmlns="http://www.w3.org/2000/svg" viewBox="0 0 600 600">
  <defs>
    <style>
      .cls-1 {
        fill: #fff;
      }
    </style>
  <clipPath id="SvgjsClipPath1168"><rect width="1000" height="1000" x="0" y="0" rx="100" ry="100"></rect></clipPath></defs>
  <g id="Background">
    <rect width="600" height="600"></rect>
  </g>
  <g id="Dark-12" data-name="Dark">
    <g>
      <path class="cls-1" d="M268.594,347.4984l-41.0623,41.0623c-2.2318,2.2318-5.147,3.3478-8.0621,3.3478s-5.8074-1.1159-8.0394-3.3478c-4.441-4.441-4.441-11.6606,0-16.1015l41.0623-41.0623c4.236,6.3768,9.7246,11.8655,16.1015,16.1015Z"></path>
      <path class="cls-1" d="M331.4057,252.5063l41.0623-41.0622c4.441-4.441,11.6605-4.441,16.1015,0s4.441,11.6605,0,16.1015l-41.0623,41.0622c-4.2132-6.3996-9.7019-11.8882-16.1015-16.1015Z"></path>
      <path class="cls-1" d="M388.5696,372.4592c4.441,4.4409,4.441,11.6605,0,16.1015-2.2092,2.2318-5.147,3.3478-8.0394,3.3478-2.9151,0-5.8302-1.1159-8.0621-3.3478l-41.0623-41.0623c6.3769-4.236,11.8655-9.7247,16.1015-16.1015l41.0623,41.0623Z"></path>
      <path class="cls-1" d="M227.5317,211.4213l41.0623,41.0623c-6.3769,4.236-11.8655,9.7246-16.1015,16.1014l-41.0623-41.0622c-4.441-4.441-4.441-11.6605,0-16.1015s11.6605-4.441,16.1015,0Z"></path>
      <path class="cls-1" d="M432.141,183.9724l62.0603-62.0602c-7.3561-2.8924-13.2091-8.7454-16.1015-16.1015l-62.0603,62.0602c-4.441,4.441-4.441,11.6605,0,16.1015,4.441,4.441,11.6605,4.441,16.1015,0Z"></path>
      <path class="cls-1" d="M372.467,6.8398l-62.0603,62.0603c7.3561,2.8924,13.2091,8.7454,16.1015,16.1015l62.0603-62.0603c4.441-4.441,4.441-11.6605,0-16.1015-4.441-4.441-11.6605-4.441-16.1015,0Z"></path>
      <path class="cls-1" d="M227.5368,6.8399l62.0603,62.0603c-7.3561,2.8924-13.2091,8.7454-16.1015,16.1015l-62.0603-62.0603c-4.441-4.441-4.441-11.6605,0-16.1015s11.6605-4.441,16.1015,0Z"></path>
      <path class="cls-1" d="M372.4619,593.1818l-62.0603-62.0602c7.3561-2.8924,13.2091-8.7454,16.1015-16.1015l62.0603,62.0602c4.441,4.441,4.441,11.6605,0,16.1015-4.441,4.441-11.6605,4.441-16.1015,0Z"></path>
      <path class="cls-1" d="M227.5322,593.1821l62.0603-62.0603c-7.3561-2.8924-13.2091-8.7454-16.1015-16.1015l-62.0603,62.0603c-4.441,4.441-4.441,11.6605,0,16.1015s11.6605,4.441,16.1015,0Z"></path>
      <path class="cls-1" d="M167.8571,416.0483l-62.0603,62.0602c7.3561,2.8924,13.2091,8.7454,16.1015,16.1015l62.0603-62.0602c4.441-4.441,4.441-11.6605,0-16.1015-4.441-4.441-11.6605-4.441-16.1015,0Z"></path>
      <path class="cls-1" d="M416.0406,432.1504l62.0602,62.0603c2.8924-7.3561,8.7454-13.2091,16.1015-16.1015l-62.0602-62.0603c-4.441-4.441-11.6605-4.441-16.1015,0-4.441,4.441-4.441,11.6605,0,16.1015Z"></path>
      <path class="cls-1" d="M432.1421,593.1813l62.0603-62.0603c-7.3561-2.8924-13.2091-8.7454-16.1015-16.1015l-62.0603,62.0603c-4.441,4.441-4.441,11.6605,0,16.1015s11.6605,4.441,16.1015,0Z"></path>
      <path class="cls-1" d="M167.8571,593.1816l-62.0603-62.0602c7.3561-2.8924,13.2091-8.7454,16.1015-16.1015l62.0603,62.0602c4.441,4.441,4.441,11.6605,0,16.1015s-11.6605,4.441-16.1015,0Z"></path>
      <path class="cls-1" d="M167.8572,183.9505l-62.0602-62.0603c7.3561-2.8924,13.2091-8.7454,16.1015-16.1015l62.0602,62.0603c4.441,4.441,4.441,11.6605,0,16.1015s-11.6605,4.441-16.1015,0Z"></path>
      <path class="cls-1" d="M6.8514,227.5344l62.0602,62.0603c2.8924-7.3561,8.7454-13.2091,16.1015-16.1015l-62.0602-62.0603c-4.441-4.441-11.6605-4.441-16.1015,0-4.441,4.441-4.441,11.6605,0,16.1015Z"></path>
      <path class="cls-1" d="M22.9523,388.5656l62.0603-62.0603c-7.3561-2.8924-13.2091-8.7454-16.1015-16.1015l-62.0603,62.0603c-4.441,4.441-4.441,11.6605,0,16.1015,4.441,4.441,11.6605,4.441,16.1015,0Z"></path>
      <path class="cls-1" d="M167.8577,6.8179l-62.0603,62.0603c7.3561,2.8924,13.2091,8.7454,16.1015,16.1015l62.0603-62.0603c4.441-4.441,4.441-11.6605,0-16.1015s-11.6605-4.441-16.1015,0Z"></path>
      <path class="cls-1" d="M416.0402,22.9405l62.0602,62.0603c2.8924-7.3561,8.7454-13.2091,16.1015-16.1015l-62.0602-62.0603c-4.441-4.441-11.6605-4.441-16.1015,0s-4.441,11.6605,0,16.1015Z"></path>
      <path class="cls-1" d="M577.0713,211.443l-62.0603,62.0603c7.3561,2.8924,13.2091,8.7454,16.1015,16.1015l62.0603-62.0603c4.441-4.441,4.441-11.6605,0-16.1015-4.441-4.441-11.6605-4.441-16.1015,0Z"></path>
      <path class="cls-1" d="M593.1737,372.4752l-62.0603-62.0603c-2.8924,7.3561-8.7454,13.2091-16.1015,16.1015l62.0603,62.0603c4.441,4.441,11.6605,4.441,16.1015,0s4.441-11.6605,0-16.1015Z"></path>
      <path class="cls-1" d="M432.1414,211.4439l62.0604,62.0602c-7.3561,2.8924-13.2091,8.7455-16.1015,16.1016l-62.0604-62.0602c-4.441-4.441-4.4411-11.6605,0-16.1015,4.441-4.441,11.6605-4.4411,16.1015,0Z"></path>
      <path class="cls-1" d="M372.4673,183.9728l-62.0603-62.0602c7.3561-2.8924,13.2091-8.7454,16.1015-16.1015l62.0603,62.0602c4.441,4.441,4.441,11.6605,0,16.1015-4.441,4.441-11.6605,4.441-16.1015,0Z"></path>
      <path class="cls-1" d="M227.5481,183.9659l62.0603-62.0603c-7.3561-2.8924-13.2091-8.7454-16.1015-16.1015l-62.0603,62.0603c-4.441,4.441-4.441,11.6605,0,16.1015,4.441,4.441,11.6605,4.441,16.1015,0Z"></path>
      <path class="cls-1" d="M372.4621,416.0486l-62.0603,62.0603c7.3561,2.8924,13.2091,8.7454,16.1015,16.1015l62.0603-62.0603c4.441-4.441,4.441-11.6605,0-16.1015-4.441-4.441-11.6605-4.441-16.1015,0Z"></path>
      <path class="cls-1" d="M227.5317,416.0488l62.0602,62.0603c-7.3561,2.8924-13.2091,8.7454-16.1015,16.1015l-62.0602-62.0603c-4.441-4.441-4.441-11.6605,0-16.1015,4.441-4.441,11.6605-4.441,16.1015,0Z"></path>
      <path class="cls-1" d="M432.1422,388.5773l62.0603-62.0603c-7.3561-2.8924-13.2091-8.7454-16.1015-16.1015l-62.0603,62.0603c-4.441,4.441-4.441,11.6605,0,16.1015,4.441,4.441,11.6605,4.441,16.1015,0Z"></path>
      <path class="cls-1" d="M183.9591,372.4762l-62.0603-62.0603c-2.8924,7.3561-8.7454,13.2091-16.1015,16.1015l62.0603,62.0603c4.441,4.441,11.6605,4.441,16.1015,0s4.441-11.6605,0-16.1015Z"></path>
      <path class="cls-1" d="M577.0733,416.0496l-62.0603,62.0603c7.3561,2.8924,13.2091,8.7454,16.1015,16.1015l62.0603-62.0603c4.441-4.441,4.441-11.6605,0-16.1015-4.441-4.441-11.6605-4.441-16.1015,0Z"></path>
      <path class="cls-1" d="M6.8253,432.1501l62.0602,62.0603c2.8924-7.3561,8.7454-13.2091,16.1015-16.1015l-62.0602-62.0603c-4.441-4.441-11.6605-4.441-16.1015,0-4.441,4.441-4.441,11.6605,0,16.1015Z"></path>
      <path class="cls-1" d="M167.8578,211.421l-62.0603,62.0602c7.3561,2.8924,13.2091,8.7454,16.1015,16.1015l62.0603-62.0602c4.441-4.441,4.441-11.6605,0-16.1015-4.441-4.441-11.6605-4.441-16.1015,0Z"></path>
      <path class="cls-1" d="M84.9869,121.8899l-62.0602,62.0603c-2.2318,2.2318-5.147,3.3478-8.0621,3.3478s-5.8074-1.1159-8.0394-3.3478c-4.441-4.441-4.441-11.6606,0-16.1015l62.0602-62.0603c2.8924,7.3561,8.7454,13.2091,16.1015,16.1015Z"></path>
      <path class="cls-1" d="M593.1727,167.8713l-62.0603-62.0603c-2.8924,7.3561-8.7454,13.2091-16.1015,16.1015l62.0603,62.0603c4.441,4.441,11.6605,4.441,16.1015,0,4.441-4.441,4.441-11.6605,0-16.1015Z"></path>
    </g>
  </g>
</svg></svg></g></g></svg></g><g id="dark-icon"><svg xmlns="http://www.w3.org/2000/svg" version="1.1" xmlns:xlink="http://www.w3.org/1999/xlink" xmlns:svgjs="http://svgjs.dev/svgjs" width="1000" height="1000"><g clip-path="url(#SvgjsClipPath1169)"><rect width="1000" height="1000" fill="#000000"></rect><g transform="matrix(1.5,0,0,1.5,50,50)"><svg xmlns="http://www.w3.org/2000/svg" version="1.1" xmlns:xlink="http://www.w3.org/1999/xlink" xmlns:svgjs="http://svgjs.dev/svgjs" width="600" height="600"><svg xmlns="http://www.w3.org/2000/svg" viewBox="0 0 600 600">
  <defs>
    <style>
      .cls-1 {
        fill: #fff;
      }
    </style>
  <clipPath id="SvgjsClipPath1169"><rect width="1000" height="1000" x="0" y="0" rx="100" ry="100"></rect></clipPath></defs>
  <g id="Background">
    <rect width="600" height="600"></rect>
  </g>
  <g id="Dark-12" data-name="Dark">
    <g>
      <path class="cls-1" d="M268.594,347.4984l-41.0623,41.0623c-2.2318,2.2318-5.147,3.3478-8.0621,3.3478s-5.8074-1.1159-8.0394-3.3478c-4.441-4.441-4.441-11.6606,0-16.1015l41.0623-41.0623c4.236,6.3768,9.7246,11.8655,16.1015,16.1015Z"></path>
      <path class="cls-1" d="M331.4057,252.5063l41.0623-41.0622c4.441-4.441,11.6605-4.441,16.1015,0s4.441,11.6605,0,16.1015l-41.0623,41.0622c-4.2132-6.3996-9.7019-11.8882-16.1015-16.1015Z"></path>
      <path class="cls-1" d="M388.5696,372.4592c4.441,4.4409,4.441,11.6605,0,16.1015-2.2092,2.2318-5.147,3.3478-8.0394,3.3478-2.9151,0-5.8302-1.1159-8.0621-3.3478l-41.0623-41.0623c6.3769-4.236,11.8655-9.7247,16.1015-16.1015l41.0623,41.0623Z"></path>
      <path class="cls-1" d="M227.5317,211.4213l41.0623,41.0623c-6.3769,4.236-11.8655,9.7246-16.1015,16.1014l-41.0623-41.0622c-4.441-4.441-4.441-11.6605,0-16.1015s11.6605-4.441,16.1015,0Z"></path>
      <path class="cls-1" d="M432.141,183.9724l62.0603-62.0602c-7.3561-2.8924-13.2091-8.7454-16.1015-16.1015l-62.0603,62.0602c-4.441,4.441-4.441,11.6605,0,16.1015,4.441,4.441,11.6605,4.441,16.1015,0Z"></path>
      <path class="cls-1" d="M372.467,6.8398l-62.0603,62.0603c7.3561,2.8924,13.2091,8.7454,16.1015,16.1015l62.0603-62.0603c4.441-4.441,4.441-11.6605,0-16.1015-4.441-4.441-11.6605-4.441-16.1015,0Z"></path>
      <path class="cls-1" d="M227.5368,6.8399l62.0603,62.0603c-7.3561,2.8924-13.2091,8.7454-16.1015,16.1015l-62.0603-62.0603c-4.441-4.441-4.441-11.6605,0-16.1015s11.6605-4.441,16.1015,0Z"></path>
      <path class="cls-1" d="M372.4619,593.1818l-62.0603-62.0602c7.3561-2.8924,13.2091-8.7454,16.1015-16.1015l62.0603,62.0602c4.441,4.441,4.441,11.6605,0,16.1015-4.441,4.441-11.6605,4.441-16.1015,0Z"></path>
      <path class="cls-1" d="M227.5322,593.1821l62.0603-62.0603c-7.3561-2.8924-13.2091-8.7454-16.1015-16.1015l-62.0603,62.0603c-4.441,4.441-4.441,11.6605,0,16.1015s11.6605,4.441,16.1015,0Z"></path>
      <path class="cls-1" d="M167.8571,416.0483l-62.0603,62.0602c7.3561,2.8924,13.2091,8.7454,16.1015,16.1015l62.0603-62.0602c4.441-4.441,4.441-11.6605,0-16.1015-4.441-4.441-11.6605-4.441-16.1015,0Z"></path>
      <path class="cls-1" d="M416.0406,432.1504l62.0602,62.0603c2.8924-7.3561,8.7454-13.2091,16.1015-16.1015l-62.0602-62.0603c-4.441-4.441-11.6605-4.441-16.1015,0-4.441,4.441-4.441,11.6605,0,16.1015Z"></path>
      <path class="cls-1" d="M432.1421,593.1813l62.0603-62.0603c-7.3561-2.8924-13.2091-8.7454-16.1015-16.1015l-62.0603,62.0603c-4.441,4.441-4.441,11.6605,0,16.1015s11.6605,4.441,16.1015,0Z"></path>
      <path class="cls-1" d="M167.8571,593.1816l-62.0603-62.0602c7.3561-2.8924,13.2091-8.7454,16.1015-16.1015l62.0603,62.0602c4.441,4.441,4.441,11.6605,0,16.1015s-11.6605,4.441-16.1015,0Z"></path>
      <path class="cls-1" d="M167.8572,183.9505l-62.0602-62.0603c7.3561-2.8924,13.2091-8.7454,16.1015-16.1015l62.0602,62.0603c4.441,4.441,4.441,11.6605,0,16.1015s-11.6605,4.441-16.1015,0Z"></path>
      <path class="cls-1" d="M6.8514,227.5344l62.0602,62.0603c2.8924-7.3561,8.7454-13.2091,16.1015-16.1015l-62.0602-62.0603c-4.441-4.441-11.6605-4.441-16.1015,0-4.441,4.441-4.441,11.6605,0,16.1015Z"></path>
      <path class="cls-1" d="M22.9523,388.5656l62.0603-62.0603c-7.3561-2.8924-13.2091-8.7454-16.1015-16.1015l-62.0603,62.0603c-4.441,4.441-4.441,11.6605,0,16.1015,4.441,4.441,11.6605,4.441,16.1015,0Z"></path>
      <path class="cls-1" d="M167.8577,6.8179l-62.0603,62.0603c7.3561,2.8924,13.2091,8.7454,16.1015,16.1015l62.0603-62.0603c4.441-4.441,4.441-11.6605,0-16.1015s-11.6605-4.441-16.1015,0Z"></path>
      <path class="cls-1" d="M416.0402,22.9405l62.0602,62.0603c2.8924-7.3561,8.7454-13.2091,16.1015-16.1015l-62.0602-62.0603c-4.441-4.441-11.6605-4.441-16.1015,0s-4.441,11.6605,0,16.1015Z"></path>
      <path class="cls-1" d="M577.0713,211.443l-62.0603,62.0603c7.3561,2.8924,13.2091,8.7454,16.1015,16.1015l62.0603-62.0603c4.441-4.441,4.441-11.6605,0-16.1015-4.441-4.441-11.6605-4.441-16.1015,0Z"></path>
      <path class="cls-1" d="M593.1737,372.4752l-62.0603-62.0603c-2.8924,7.3561-8.7454,13.2091-16.1015,16.1015l62.0603,62.0603c4.441,4.441,11.6605,4.441,16.1015,0s4.441-11.6605,0-16.1015Z"></path>
      <path class="cls-1" d="M432.1414,211.4439l62.0604,62.0602c-7.3561,2.8924-13.2091,8.7455-16.1015,16.1016l-62.0604-62.0602c-4.441-4.441-4.4411-11.6605,0-16.1015,4.441-4.441,11.6605-4.4411,16.1015,0Z"></path>
      <path class="cls-1" d="M372.4673,183.9728l-62.0603-62.0602c7.3561-2.8924,13.2091-8.7454,16.1015-16.1015l62.0603,62.0602c4.441,4.441,4.441,11.6605,0,16.1015-4.441,4.441-11.6605,4.441-16.1015,0Z"></path>
      <path class="cls-1" d="M227.5481,183.9659l62.0603-62.0603c-7.3561-2.8924-13.2091-8.7454-16.1015-16.1015l-62.0603,62.0603c-4.441,4.441-4.441,11.6605,0,16.1015,4.441,4.441,11.6605,4.441,16.1015,0Z"></path>
      <path class="cls-1" d="M372.4621,416.0486l-62.0603,62.0603c7.3561,2.8924,13.2091,8.7454,16.1015,16.1015l62.0603-62.0603c4.441-4.441,4.441-11.6605,0-16.1015-4.441-4.441-11.6605-4.441-16.1015,0Z"></path>
      <path class="cls-1" d="M227.5317,416.0488l62.0602,62.0603c-7.3561,2.8924-13.2091,8.7454-16.1015,16.1015l-62.0602-62.0603c-4.441-4.441-4.441-11.6605,0-16.1015,4.441-4.441,11.6605-4.441,16.1015,0Z"></path>
      <path class="cls-1" d="M432.1422,388.5773l62.0603-62.0603c-7.3561-2.8924-13.2091-8.7454-16.1015-16.1015l-62.0603,62.0603c-4.441,4.441-4.441,11.6605,0,16.1015,4.441,4.441,11.6605,4.441,16.1015,0Z"></path>
      <path class="cls-1" d="M183.9591,372.4762l-62.0603-62.0603c-2.8924,7.3561-8.7454,13.2091-16.1015,16.1015l62.0603,62.0603c4.441,4.441,11.6605,4.441,16.1015,0s4.441-11.6605,0-16.1015Z"></path>
      <path class="cls-1" d="M577.0733,416.0496l-62.0603,62.0603c7.3561,2.8924,13.2091,8.7454,16.1015,16.1015l62.0603-62.0603c4.441-4.441,4.441-11.6605,0-16.1015-4.441-4.441-11.6605-4.441-16.1015,0Z"></path>
      <path class="cls-1" d="M6.8253,432.1501l62.0602,62.0603c2.8924-7.3561,8.7454-13.2091,16.1015-16.1015l-62.0602-62.0603c-4.441-4.441-11.6605-4.441-16.1015,0-4.441,4.441-4.441,11.6605,0,16.1015Z"></path>
      <path class="cls-1" d="M167.8578,211.421l-62.0603,62.0602c7.3561,2.8924,13.2091,8.7454,16.1015,16.1015l62.0603-62.0602c4.441-4.441,4.441-11.6605,0-16.1015-4.441-4.441-11.6605-4.441-16.1015,0Z"></path>
      <path class="cls-1" d="M84.9869,121.8899l-62.0602,62.0603c-2.2318,2.2318-5.147,3.3478-8.0621,3.3478s-5.8074-1.1159-8.0394-3.3478c-4.441-4.441-4.441-11.6606,0-16.1015l62.0602-62.0603c2.8924,7.3561,8.7454,13.2091,16.1015,16.1015Z"></path>
      <path class="cls-1" d="M593.1727,167.8713l-62.0603-62.0603c-2.8924,7.3561-8.7454,13.2091-16.1015,16.1015l62.0603,62.0603c4.441,4.441,11.6605,4.441,16.1015,0,4.441-4.441,4.441-11.6605,0-16.1015Z"></path>
    </g>
  </g>
</svg></svg></g></g></svg></g></svg>